<svg width="40" height="41" viewBox="0 0 40 41" fill="none" xmlns="http://www.w3.org/2000/svg">
<g clip-path="url(#clip0_3951_2667)">
<path d="M35 0.0566406H5C2.2425 0.0566406 0 2.29914 0 5.05664V35.0566C0 37.8141 2.2425 40.0566 5 40.0566H35C37.7575 40.0566 40 37.8141 40 35.0566V5.05664C40 2.29914 37.7575 0.0566406 35 0.0566406Z" fill="#1976D2"/>
<path fill-rule="evenodd" clip-rule="evenodd" d="M33.75 20.0566H27.5V15.0566C27.5 13.6766 28.62 13.8066 30 13.8066H32.5V7.55664H27.5C25.5109 7.55664 23.6032 8.34682 22.1967 9.75334C20.7902 11.1599 20 13.0675 20 15.0566V20.0566H15V26.3066H20V40.0566H27.5V26.3066H31.25L33.75 20.0566Z" fill="#FAFAFA"/>
</g>
<defs>
<clipPath id="clip0_3951_2667">
<rect width="40" height="40" fill="white" transform="translate(0 0.0566406)"/>
</clipPath>
</defs>
</svg>
