<svg width="40" height="41" viewBox="0 0 40 41" fill="none" xmlns="http://www.w3.org/2000/svg">
<g clip-path="url(#clip0_3951_2670)">
<path d="M10.1431 39.9151C8.59597 39.8978 7.06334 39.614 5.61255 39.0762C4.55312 38.6846 3.59459 38.0612 2.80706 37.2515C1.9952 36.4656 1.37086 35.5068 0.980392 34.4464C0.44304 32.9957 0.159679 31.4632 0.142745 29.9162C0.0239216 27.3445 0 26.5731 0 20.0566C0 13.5402 0.0262745 12.7715 0.141569 10.1978C0.160558 8.65145 0.444268 7.11977 0.980392 5.66919C1.37276 4.60958 1.99622 3.65068 2.80549 2.86213C3.59205 2.05101 4.55102 1.42724 5.61137 1.03703C7.06217 0.499235 8.59479 0.215475 10.142 0.198209C12.7145 0.0805622 13.4871 0.0566406 20 0.0566406C26.5129 0.0566406 27.2851 0.0829151 29.8588 0.198209C31.4056 0.217064 32.9377 0.500776 34.3886 1.03703C35.4485 1.42775 36.4072 2.0513 37.1941 2.86174C38.0048 3.64889 38.6286 4.60785 39.0196 5.66801C39.5575 7.11878 39.8414 8.65141 39.8588 10.1986C39.9765 12.7723 40.0004 13.5429 40.0004 20.0574C40.0004 26.5719 39.9765 27.3425 39.8588 29.9162C39.8402 31.4632 39.5563 32.9955 39.0196 34.4464C38.6136 35.4987 37.9919 36.4542 37.1943 37.2516C36.3967 38.049 35.441 38.6706 34.3886 39.0762C32.9379 39.6142 31.4052 39.8981 29.858 39.9155C27.2867 40.0331 26.5137 40.057 19.9992 40.057C13.4847 40.057 12.7141 40.0343 10.1427 39.9155" fill="url(#paint0_radial_3951_2670)"/>
<path d="M10.1431 39.9151C8.59597 39.8978 7.06334 39.614 5.61255 39.0762C4.55312 38.6846 3.59459 38.0612 2.80706 37.2515C1.9952 36.4656 1.37086 35.5068 0.980392 34.4464C0.44304 32.9957 0.159679 31.4632 0.142745 29.9162C0.0239216 27.3445 0 26.5731 0 20.0566C0 13.5402 0.0262745 12.7715 0.141569 10.1978C0.160558 8.65145 0.444268 7.11977 0.980392 5.66919C1.37276 4.60958 1.99622 3.65068 2.80549 2.86213C3.59205 2.05101 4.55102 1.42724 5.61137 1.03703C7.06217 0.499235 8.59479 0.215475 10.142 0.198209C12.7145 0.0805622 13.4871 0.0566406 20 0.0566406C26.5129 0.0566406 27.2851 0.0829151 29.8588 0.198209C31.4056 0.217064 32.9377 0.500776 34.3886 1.03703C35.4485 1.42775 36.4072 2.0513 37.1941 2.86174C38.0048 3.64889 38.6286 4.60785 39.0196 5.66801C39.5575 7.11878 39.8414 8.65141 39.8588 10.1986C39.9765 12.7723 40.0004 13.5429 40.0004 20.0574C40.0004 26.5719 39.9765 27.3425 39.8588 29.9162C39.8402 31.4632 39.5563 32.9955 39.0196 34.4464C38.6136 35.4987 37.9919 36.4542 37.1943 37.2516C36.3967 38.049 35.441 38.6706 34.3886 39.0762C32.9379 39.6142 31.4052 39.8981 29.858 39.9155C27.2867 40.0331 26.5137 40.057 19.9992 40.057C13.4847 40.057 12.7141 40.0343 10.1427 39.9155" fill="url(#paint1_radial_3951_2670)"/>
<path d="M15.0891 20.1417C15.0892 19.162 15.3798 18.2043 15.9241 17.3898C16.4685 16.5753 17.2422 15.9404 18.1473 15.5656C19.0525 15.1908 20.0485 15.0928 21.0093 15.284C21.9701 15.4753 22.8527 15.9471 23.5454 16.64C24.238 17.3328 24.7097 18.2155 24.9007 19.1764C25.0917 20.1373 24.9935 21.1332 24.6184 22.0383C24.2434 22.9433 23.6084 23.7169 22.7937 24.261C21.9791 24.8052 21.0213 25.0956 20.0416 25.0954C18.728 25.0952 17.4682 24.5732 16.5395 23.6442C15.6107 22.7152 15.089 21.4553 15.0891 20.1417ZM12.4111 20.1417C12.4111 21.6509 12.8586 23.1262 13.697 24.381C14.5355 25.6359 15.7272 26.6139 17.1215 27.1914C18.5158 27.769 20.0501 27.9201 21.5303 27.6257C23.0105 27.3312 24.3701 26.6045 25.4373 25.5373C26.5044 24.4702 27.2312 23.1105 27.5256 21.6303C27.82 20.1502 27.6689 18.6159 27.0914 17.2216C26.5138 15.8273 25.5358 14.6355 24.281 13.7971C23.0261 12.9586 21.5508 12.5111 20.0416 12.5111C19.0396 12.511 18.0473 12.7084 17.1215 13.0918C16.1957 13.4753 15.3545 14.0373 14.6459 14.7459C13.9373 15.4545 13.3752 16.2957 12.9918 17.2215C12.6083 18.1473 12.411 19.1396 12.4111 20.1417ZM26.1911 12.2087C26.1909 12.5614 26.2953 12.9062 26.4911 13.1995C26.6869 13.4929 26.9653 13.7215 27.2911 13.8566C27.6169 13.9917 27.9754 14.0272 28.3213 13.9586C28.6672 13.8899 28.985 13.7202 29.2345 13.4709C29.484 13.2217 29.654 12.904 29.7229 12.5582C29.7919 12.2123 29.7567 11.8538 29.6219 11.5279C29.4871 11.202 29.2586 10.9234 28.9655 10.7273C28.6723 10.5313 28.3276 10.4265 27.975 10.4264C27.5022 10.4266 27.0489 10.6144 26.7146 10.9486C26.3803 11.2828 26.1922 11.736 26.1918 12.2087M14.0389 32.2378C13.0966 32.2274 12.1631 32.055 11.2793 31.728C10.6383 31.4809 10.0562 31.1024 9.57039 30.6168C9.08457 30.1312 8.70581 29.5492 8.4585 28.9084C8.13135 28.0246 7.9589 27.0911 7.9487 26.1487C7.87654 24.5825 7.86242 24.1119 7.86242 20.1436C7.86242 16.1754 7.87811 15.706 7.9487 14.1382C7.96013 13.196 8.13254 12.2626 8.4585 11.3785C8.70553 10.7374 9.08417 10.1551 9.57002 9.66928C10.0559 9.18344 10.6381 8.80479 11.2793 8.55776C12.163 8.23062 13.0966 8.05817 14.0389 8.04796C15.6052 7.9758 16.0758 7.96169 20.0424 7.96169C24.0091 7.96169 24.4801 7.97698 26.0479 8.04836C26.9901 8.05979 27.9234 8.2322 28.8075 8.55816C29.4487 8.80521 30.0309 9.18386 30.5168 9.6697C31.0026 10.1555 31.3813 10.7378 31.6283 11.3789C31.9554 12.2627 32.1279 13.1962 32.1381 14.1386C32.2103 15.7072 32.2244 16.1754 32.2244 20.144C32.2244 24.1127 32.2099 24.5817 32.1381 26.1495C32.1271 27.0918 31.9547 28.0252 31.6283 28.9091C31.381 29.55 31.0022 30.1319 30.5164 30.6176C30.0306 31.1032 29.4485 31.4817 28.8075 31.7287C27.9237 32.0559 26.9902 32.2283 26.0479 32.2386C24.4816 32.3107 24.011 32.3248 20.0424 32.3248C16.0738 32.3248 15.6048 32.3103 14.0389 32.2386M13.9158 5.37228C12.6828 5.39652 11.4628 5.62989 10.3079 6.06246C9.32066 6.44418 8.42406 7.02798 7.67561 7.77644C6.92715 8.5249 6.34335 9.42149 5.96163 10.4087C5.52912 11.5636 5.29575 12.7836 5.27145 14.0166C5.19811 15.6009 5.18164 16.1076 5.18164 20.1433C5.18164 24.1789 5.1985 24.6852 5.27145 26.2699C5.29574 27.5029 5.52911 28.7229 5.96163 29.8778C6.34337 30.865 6.92718 31.7616 7.67563 32.51C8.42409 33.2585 9.32067 33.8423 10.3079 34.224C11.4629 34.6564 12.6828 34.8898 13.9158 34.9142C15.5009 34.9864 16.0067 35.004 20.0424 35.004C24.0781 35.004 24.5844 34.9872 26.1691 34.9142C27.4021 34.8899 28.622 34.6565 29.7769 34.224C30.7642 33.8423 31.6608 33.2585 32.4092 32.51C33.1577 31.7616 33.7415 30.865 34.1232 29.8778C34.5563 28.723 34.7897 27.503 34.8134 26.2699C34.8856 24.6844 34.902 24.1789 34.902 20.1433C34.902 16.1076 34.8852 15.6013 34.8134 14.0166C34.7892 12.7836 34.5558 11.5636 34.1232 10.4087C33.7415 9.42168 33.1578 8.52522 32.4096 7.77679C31.6614 7.02835 30.7651 6.44444 29.7781 6.06246C28.6233 5.62961 27.4033 5.39623 26.1703 5.37228C24.5856 5.29973 24.0793 5.28247 20.0444 5.28247C16.0095 5.28247 15.502 5.29933 13.9165 5.37228" fill="white"/>
</g>
<defs>
<radialGradient id="paint0_radial_3951_2670" cx="0" cy="0" r="1" gradientUnits="userSpaceOnUse" gradientTransform="translate(2.58863 39.1806) scale(50.7851)">
<stop offset="0.09" stop-color="#FA8F21"/>
<stop offset="0.78" stop-color="#D82D7E"/>
</radialGradient>
<radialGradient id="paint1_radial_3951_2670" cx="0" cy="0" r="1" gradientUnits="userSpaceOnUse" gradientTransform="translate(27.7067 37.8959) scale(44.6914)">
<stop offset="0.64" stop-color="#8C3AAA" stop-opacity="0"/>
<stop offset="1" stop-color="#8C3AAA"/>
</radialGradient>
<clipPath id="clip0_3951_2670">
<rect width="40" height="40" fill="white" transform="translate(0 0.0566406)"/>
</clipPath>
</defs>
</svg>
