<svg width="40" height="41" viewBox="0 0 40 41" fill="none" xmlns="http://www.w3.org/2000/svg">
<g clip-path="url(#clip0_3951_2674)">
<path d="M34 0.0566406H6C2.68629 0.0566406 0 2.74293 0 6.05664V34.0566C0 37.3703 2.68629 40.0566 6 40.0566H34C37.3137 40.0566 40 37.3703 40 34.0566V6.05664C40 2.74293 37.3137 0.0566406 34 0.0566406Z" fill="#0077B5"/>
<path d="M11.0938 13.7285C12.6902 13.7285 13.9844 12.4343 13.9844 10.8379C13.9844 9.24144 12.6902 7.94727 11.0938 7.94727C9.4973 7.94727 8.20312 9.24144 8.20312 10.8379C8.20312 12.4343 9.4973 13.7285 11.0938 13.7285Z" fill="white"/>
<path d="M19.0625 15.2129V30.6816V15.2129ZM11.0938 15.2129V30.6816V15.2129Z" fill="white"/>
<path d="M19.0625 15.2129V30.6816M11.0938 15.2129V30.6816" stroke="white" stroke-width="5.2207"/>
<path d="M21.5625 22.0879C21.5625 20.5254 22.5781 18.9629 24.375 18.9629C26.25 18.9629 26.9531 20.3691 26.9531 22.4785V30.6816H32.1094V21.8535C32.1094 17.0879 29.6094 14.9004 26.1719 14.9004C23.5156 14.9004 22.1875 16.3848 21.5625 17.4004" fill="white"/>
</g>
<defs>
<clipPath id="clip0_3951_2674">
<rect width="40" height="40" fill="white" transform="translate(0 0.0566406)"/>
</clipPath>
</defs>
</svg>
