<svg xmlns="http://www.w3.org/2000/svg" width="40" height="41" fill="none" viewBox="0 0 40 41"><g clip-path="url(#a)"><mask id="b" width="40" height="41" x="0" y="0" maskUnits="userSpaceOnUse" style="mask-type:luminance"><path fill="#fff" d="M40 .057H0v40h40z"/></mask><g mask="url(#b)"><path fill="#000" d="M35.313.057H4.686A4.69 4.69 0 0 0 0 4.744V35.37a4.687 4.687 0 0 0 4.688 4.688h30.625A4.687 4.687 0 0 0 40 35.369V4.744A4.69 4.69 0 0 0 35.313.057"/><path fill="#fff" d="M27.805 7.87h4.135l-9.034 10.324 10.628 14.05h-8.322l-6.517-8.521-7.458 8.521H7.1L16.762 21.2 6.567 7.87H15.1l5.891 7.788zm-1.451 21.9h2.29l-14.79-19.556h-2.458z"/></g></g><defs><clipPath id="a"><path fill="#fff" d="M0 .057h40v40H0z"/></clipPath></defs></svg>